<svg width="720" height="202" viewBox="0 0 720 202" fill="none" xmlns="http://www.w3.org/2000/svg">
<g clip-path="url(#clip0)">
<rect width="720" height="202" fill="white"/>
<path fill-rule="evenodd" clip-rule="evenodd" d="M162.022 107.58C162.022 110.857 162.626 113.951 163.837 116.869C165.047 119.786 166.672 122.32 168.705 124.468C170.739 126.619 173.136 128.334 175.897 129.612C178.657 130.893 181.587 131.533 184.688 131.533C188.466 131.533 191.902 130.791 195.003 129.307C198.103 127.822 200.621 125.648 202.56 122.781H221.448C219.607 127.386 217.355 131.38 214.692 134.756C212.027 138.135 209.098 140.899 205.901 143.049C202.705 145.199 199.313 146.784 195.73 147.807C192.146 148.83 188.466 149.344 184.688 149.344C179.167 149.344 174.008 148.243 169.214 146.042C164.419 143.842 160.243 140.873 156.69 137.137C153.136 133.402 150.327 128.999 148.264 123.932C146.198 118.864 145.167 113.414 145.167 107.58C145.167 101.745 146.198 96.2944 148.264 91.2273C150.327 86.159 153.136 81.7611 156.69 78.0214C160.243 74.2883 164.419 71.3181 169.214 69.1164C174.008 66.918 179.167 65.8166 184.688 65.8166C188.271 65.8166 191.88 66.3039 195.512 67.2741C199.146 68.2487 202.583 69.8088 205.829 71.9576C209.073 74.1075 212.052 76.8472 214.764 80.1724C217.476 83.4998 219.752 87.5184 221.594 92.225H202.56C200.428 89.1545 197.813 86.955 194.713 85.6232C191.612 84.2947 188.271 83.6265 184.688 83.6265C181.587 83.6265 178.657 84.266 175.897 85.5471C173.136 86.8282 170.739 88.5404 168.705 90.6903C166.672 92.8402 165.047 95.3738 163.837 98.2911C162.626 101.208 162.022 104.304 162.022 107.58" fill="#292E34"/>
<path fill-rule="evenodd" clip-rule="evenodd" d="M248.22 107.58C248.22 110.857 248.827 113.951 250.041 116.869C251.256 119.786 252.883 122.32 254.925 124.468C256.965 126.619 259.369 128.334 262.14 129.612C264.909 130.893 267.849 131.533 270.958 131.533C274.07 131.533 277.007 130.944 279.777 129.767C282.547 128.591 284.976 126.927 287.065 124.777C289.154 122.627 290.78 120.093 291.949 117.176C293.115 114.259 293.698 111.06 293.698 107.58C293.698 104.304 293.091 101.208 291.876 98.291C290.661 95.3737 289.034 92.8402 286.993 90.6903C284.952 88.5404 282.547 86.8282 279.777 85.5471C277.007 84.2659 274.07 83.6265 270.958 83.6265C267.849 83.6265 264.909 84.2659 262.14 85.5471C259.369 86.8282 256.965 88.5404 254.925 90.6903C252.883 92.8402 251.256 95.3737 250.041 98.291C248.827 101.208 248.22 104.304 248.22 107.58M231.366 107.58C231.366 101.745 232.406 96.2944 234.489 91.2273C236.572 86.159 239.404 81.7611 242.989 78.0214C246.572 74.2883 250.763 71.3181 255.558 69.1164C260.353 66.918 265.511 65.8166 271.032 65.8166C276.554 65.8166 281.713 66.918 286.507 69.1164C291.301 71.3181 295.465 74.2883 299.002 78.0214C302.537 81.7611 305.345 86.159 307.429 91.2273C309.512 96.2944 310.553 101.745 310.553 107.58V149.187H293.698V141.819C287.015 146.834 279.459 149.344 271.032 149.344C265.025 149.344 259.576 148.268 254.686 146.119C249.794 143.969 245.629 141.001 242.19 137.214C238.751 133.427 236.088 128.999 234.199 123.932C232.31 118.864 231.366 113.414 231.366 107.58" fill="#292E34"/>
<path fill-rule="evenodd" clip-rule="evenodd" d="M357.618 124.622C357.713 121.552 356.721 119.351 354.639 118.022C352.556 116.692 349.482 115.463 345.413 114.336C342.7 113.62 340.037 112.749 337.422 111.725C334.806 110.703 332.41 109.346 330.23 107.656C328.051 105.967 326.233 103.871 324.781 101.362C323.329 98.8533 322.406 95.7564 322.02 92.0729C321.73 88.3872 322.213 84.9584 323.473 81.7854C324.732 78.6145 326.572 75.8505 328.994 73.4923C331.414 71.1395 334.248 69.2707 337.495 67.8893C340.738 66.5067 344.2 65.8166 347.884 65.8166C350.983 65.8166 353.888 66.3789 356.601 67.5045C359.311 68.6324 361.735 70.091 363.867 71.8804C365.995 73.6731 367.739 75.6697 369.098 77.8692C370.452 80.0721 371.372 82.2451 371.858 84.395H354.858C353.888 82.4513 351.37 81.4767 347.303 81.4767C344.879 81.4767 342.7 82.2451 340.763 83.7809C338.825 85.3167 338.149 87.5195 338.73 90.3827C339.116 92.1236 340.545 93.5062 343.016 94.5282C345.485 95.5524 349.191 96.935 354.132 98.6736C357.037 99.699 359.749 100.927 362.268 102.359C364.786 103.794 366.99 105.533 368.879 107.58C370.768 109.628 372.243 112.085 373.311 114.951C374.375 117.817 374.909 121.145 374.909 124.929C374.909 128.822 374.158 132.276 372.657 135.296C371.153 138.314 369.144 140.874 366.627 142.971C364.108 145.071 361.201 146.68 357.908 147.808C354.615 148.933 351.176 149.497 347.593 149.497C344.396 149.497 341.175 148.857 337.931 147.578C334.684 146.296 331.777 144.506 329.213 142.203C326.644 139.9 324.539 137.087 322.892 133.759C321.244 130.434 320.422 126.772 320.422 122.78H337.277C337.373 125.544 338.373 127.977 340.276 130.073C342.178 132.173 344.689 133.221 347.813 133.221C350.74 133.221 353.081 132.3 354.838 130.457C356.595 128.615 357.52 126.672 357.618 124.622" fill="#292E34"/>
<path fill-rule="evenodd" clip-rule="evenodd" d="M384.778 41.5669H401.923V73.6445C406.766 70.4737 412.044 68.885 417.761 68.885C422.701 68.885 427.205 69.8066 431.274 71.6478C435.341 73.4912 438.829 76.0006 441.735 79.1725C444.64 82.3466 446.892 86.0577 448.491 90.3045C450.089 94.5536 450.888 99.0827 450.888 103.893V149.187H433.889L433.744 103.74C433.744 101.491 433.329 99.3396 432.508 97.2912C431.684 95.2449 430.547 93.4522 429.094 91.9164C427.641 90.3806 425.945 89.18 424.007 88.309C422.069 87.4391 419.988 87.0025 417.761 87.0025C415.726 87.0025 413.764 87.4634 411.876 88.3851C409.986 89.3068 408.316 90.5603 406.863 92.1468C405.41 93.7345 404.248 95.5514 403.375 97.5977C402.504 99.6461 402.069 101.743 402.069 103.893V149.187H384.778V41.5669Z" fill="#292E34"/>
<path fill-rule="evenodd" clip-rule="evenodd" d="M477.612 107.581C477.612 110.86 478.216 113.953 479.428 116.872C480.638 119.788 482.262 122.321 484.296 124.47C486.329 126.621 488.727 128.336 491.487 129.615C494.248 130.896 497.178 131.535 500.278 131.535C503.378 131.535 506.309 130.896 509.069 129.615C511.83 128.336 514.227 126.621 516.261 124.47C518.295 122.321 519.917 119.788 521.129 116.872C522.338 113.953 522.944 110.86 522.944 107.581C522.944 104.306 522.338 101.211 521.129 98.2922C519.917 95.3761 518.295 92.8425 516.261 90.6926C514.227 88.5427 511.83 86.8305 509.069 85.5494C506.309 84.2683 503.378 83.6288 500.278 83.6288C497.178 83.6288 494.248 84.2683 491.487 85.5494C488.727 86.8305 486.329 88.5427 484.296 90.6926C482.262 92.8425 480.638 95.3761 479.428 98.2922C478.216 101.211 477.612 104.306 477.612 107.581V107.581ZM460.758 41.5669H477.612V74.8782C478.869 73.6489 480.373 72.4979 482.116 71.4218C483.86 70.348 485.724 69.402 487.709 68.5807C489.694 67.7648 491.752 67.0989 493.886 66.5851C496.014 66.0747 498.147 65.8178 500.278 65.8178C505.799 65.8178 510.959 66.9192 515.753 69.1187C520.547 71.3204 524.711 74.2906 528.247 78.0237C531.783 81.7623 534.591 86.1613 536.675 91.2285C538.758 96.2967 539.799 101.746 539.799 107.581C539.799 113.415 538.758 118.866 536.675 123.933C534.591 129.002 531.783 133.404 528.247 137.139C524.711 140.876 520.547 143.845 515.753 146.044C510.959 148.245 505.799 149.346 500.278 149.346C494.757 149.346 489.599 148.27 484.805 146.12C480.009 143.972 475.818 141.03 472.235 137.291C468.651 133.557 465.843 129.154 463.809 124.089C461.774 119.021 460.758 113.52 460.758 107.581V41.5669Z" fill="#26ADE4"/>
<path fill-rule="evenodd" clip-rule="evenodd" d="M566.523 107.58C566.523 110.857 567.129 113.951 568.343 116.869C569.559 119.786 571.185 122.32 573.227 124.468C575.268 126.619 577.672 128.334 580.443 129.612C583.212 130.893 586.152 131.533 589.261 131.533C592.372 131.533 595.31 130.944 598.08 129.767C600.85 128.591 603.279 126.927 605.367 124.777C607.456 122.627 609.083 120.093 610.251 117.176C611.418 114.259 612.001 111.06 612.001 107.58C612.001 104.304 611.394 101.208 610.178 98.291C608.964 95.3737 607.336 92.8402 605.295 90.6903C603.255 88.5404 600.85 86.8282 598.08 85.5471C595.31 84.2659 592.372 83.6265 589.261 83.6265C586.152 83.6265 583.212 84.2659 580.443 85.5471C577.672 86.8282 575.268 88.5404 573.227 90.6903C571.185 92.8402 569.559 95.3737 568.343 98.291C567.129 101.208 566.523 104.304 566.523 107.58M549.668 107.58C549.668 101.745 550.708 96.2944 552.792 91.2273C554.873 86.159 557.707 81.7611 561.291 78.0214C564.874 74.2883 569.065 71.3181 573.86 69.1164C578.655 66.918 583.813 65.8166 589.335 65.8166C594.856 65.8166 600.015 66.918 604.809 69.1164C609.603 71.3181 613.767 74.2883 617.304 78.0214C620.84 81.7611 623.647 86.159 625.732 91.2273C627.814 96.2944 628.855 101.745 628.855 107.58V149.187H612.001V141.819C605.317 146.834 597.761 149.344 589.335 149.344C583.327 149.344 577.878 148.268 572.988 146.119C568.096 143.969 563.931 141.001 560.492 137.214C557.054 133.427 554.39 128.999 552.502 123.932C550.612 118.864 549.668 113.414 549.668 107.58" fill="#26ADE4"/>
<path fill-rule="evenodd" clip-rule="evenodd" d="M655.579 107.58C655.579 110.857 656.183 113.951 657.394 116.869C658.604 119.786 660.229 122.32 662.262 124.468C664.295 126.619 666.693 128.334 669.454 129.612C672.214 130.893 675.144 131.533 678.245 131.533C682.022 131.533 685.459 130.791 688.56 129.307C691.659 127.822 694.178 125.648 696.116 122.781H715.005C713.164 127.386 710.912 131.38 708.249 134.756C705.583 138.135 702.655 140.899 699.458 143.049C696.261 145.199 692.87 146.784 689.287 147.807C685.703 148.83 682.022 149.344 678.245 149.344C672.723 149.344 667.565 148.243 662.771 146.042C657.976 143.842 653.8 140.873 650.247 137.137C646.693 133.402 643.884 128.999 641.82 123.932C639.755 118.864 638.724 113.414 638.724 107.58C638.724 101.745 639.755 96.2944 641.82 91.2273C643.884 86.159 646.693 81.7611 650.247 78.0214C653.8 74.2883 657.976 71.3181 662.771 69.1164C667.565 66.918 672.723 65.8166 678.245 65.8166C681.827 65.8166 685.437 66.3039 689.069 67.2741C692.703 68.2487 696.139 69.8088 699.386 71.9576C702.63 74.1075 705.609 76.8472 708.321 80.1724C711.033 83.4998 713.309 87.5184 715.151 92.225H696.116C693.985 89.1545 691.369 86.955 688.27 85.6232C685.169 84.2947 681.827 83.6265 678.245 83.6265C675.144 83.6265 672.214 84.266 669.454 85.5471C666.693 86.8282 664.295 88.5404 662.262 90.6903C660.229 92.8402 658.604 95.3738 657.394 98.2911C656.183 101.208 655.579 104.304 655.579 107.58" fill="#26ADE4"/>
<path fill-rule="evenodd" clip-rule="evenodd" d="M10.4604 64.0981L10.4619 64.0964C9.76957 64.7945 9.09274 65.5098 8.43298 66.2404C9.09274 65.5098 9.76801 64.7945 10.4604 64.0981" fill="#9C9C9C"/>
<mask id="mask0" mask-type="alpha" maskUnits="userSpaceOnUse" x="1" y="56" width="65" height="81">
<path fill-rule="evenodd" clip-rule="evenodd" d="M1.22839 136.545V56.5165L65.9461 56.5165V136.545H1.22839Z" fill="white"/>
</mask>
<g mask="url(#mask0)">
<path fill-rule="evenodd" clip-rule="evenodd" d="M23.7025 60.4571C11.1003 66.2696 2.88632 77.9562 1.45281 91.9779C1.45177 91.9812 1.45177 91.9845 1.45072 91.9879C1.39334 92.6438 1.33492 93.3009 1.29736 93.9591C1.26084 94.6162 1.24623 95.2766 1.23058 95.9359C1.08765 110.041 7.9443 122.673 19.812 130.038C31.8466 137.506 46.8087 138.485 61.9639 133.286C44.0752 131.485 30.5445 114.954 31.6129 95.8522C32.6812 76.7269 47.9616 61.994 65.9462 62.456C51.4546 55.3812 36.4872 54.5157 23.7025 60.4571" fill="#26ADE4"/>
</g>
<path fill-rule="evenodd" clip-rule="evenodd" d="M9.79651 64.0963C13.2363 60.7601 17.2708 57.9608 21.804 55.8759C41.0239 46.9676 64.5088 51.94 84.7887 69.1424C85.037 69.3409 85.2843 69.5383 85.5305 69.7588C86.9745 70.8954 88.3245 72.1865 89.5827 73.5845C92.238 76.5745 95.8437 78.3473 99.7081 78.5888C103.938 78.8534 107.966 77.3054 111.025 74.2416C113.989 71.3078 115.676 67.3365 115.788 63.0412C115.838 61.0688 115.541 59.1438 114.95 57.3312C113.156 54.7624 111.189 52.285 109.017 49.9367C103.54 44.0184 97.3043 39.3625 90.6334 35.9635C83.8299 32.8356 76.5048 30.947 68.9189 30.4741C44.0151 28.9184 21.5484 42.7241 9.79651 64.0963" fill="#26ADE4"/>
<mask id="mask1" mask-type="alpha" maskUnits="userSpaceOnUse" x="6" y="121" width="106" height="45">
<path fill-rule="evenodd" clip-rule="evenodd" d="M111.594 165.537H6.40997L6.40997 121.439H111.594V165.537V165.537Z" fill="white"/>
</mask>
<g mask="url(#mask1)">
<path fill-rule="evenodd" clip-rule="evenodd" d="M108.119 147.712C112.691 141.868 112.832 133.209 108.064 127.194C105.368 123.77 101.54 121.733 97.3106 121.467C93.4462 121.227 89.6673 122.538 86.697 125.176C85.2927 126.41 83.8091 127.522 82.2473 128.474C81.9781 128.661 81.71 128.826 81.4429 128.992C81.4429 128.992 81.4408 128.992 81.4397 128.993C67.7275 138.062 53.2964 142.261 39.9858 141.43C31.9137 140.926 24.2464 138.581 17.4169 134.328C13.1477 131.694 9.45331 128.412 6.40997 124.672C15.6975 147.358 36.4699 163.861 61.3737 165.418C76.822 166.383 91.8624 161.471 104.088 151.552C105.414 150.382 106.718 149.168 107.974 147.87C108.024 147.819 108.069 147.765 108.119 147.712" fill="#26ADE4"/>
</g>
<path fill-rule="evenodd" clip-rule="evenodd" d="M73.7278 117.491L46.128 100.653C44.1561 99.4503 44.1561 96.4415 46.128 95.2387L73.7278 78.3989C75.6996 77.1961 78.1639 78.6999 78.1639 81.1056V114.785C78.1639 117.191 75.6996 118.695 73.7278 117.491" fill="#26ADE4"/>
</g>
<defs>
<clipPath id="clip0">
<rect width="720" height="202" fill="white"/>
</clipPath>
</defs>
</svg>
