<svg width="100" height="100" viewBox="0 0 100 100" fill="none" xmlns="http://www.w3.org/2000/svg">
<g clip-path="url(#clip0)">
<path fill-rule="evenodd" clip-rule="evenodd" d="M19.9817 29.6911L19.9827 29.69C19.5422 30.1341 19.1115 30.589 18.6918 31.0537C19.1115 30.589 19.5412 30.1341 19.9817 29.6911Z" fill="#9C9C9C"/>
<mask id="mask0" mask-type="alpha" maskUnits="userSpaceOnUse" x="14" y="24" width="42" height="52">
<path fill-rule="evenodd" clip-rule="evenodd" d="M14.1079 75.769V24.869L55.2847 24.869V75.769H14.1079Z" fill="white"/>
</mask>
<g mask="url(#mask0)">
<path fill-rule="evenodd" clip-rule="evenodd" d="M28.4071 27.3754C20.3889 31.0723 15.1628 38.5053 14.2507 47.4235C14.25 47.4256 14.25 47.4277 14.2494 47.4298C14.2129 47.847 14.1757 48.2649 14.1518 48.6836C14.1286 49.1015 14.1193 49.5215 14.1093 49.9409C14.0184 58.9123 18.3809 66.9463 25.9318 71.6305C33.5888 76.3806 43.1085 77.0033 52.751 73.6963C41.3693 72.5512 32.7604 62.037 33.4401 49.8876C34.1199 37.7234 43.842 28.3529 55.2848 28.6467C46.0645 24.147 36.5414 23.5965 28.4071 27.3754Z" fill="#26ADE4"/>
</g>
<path fill-rule="evenodd" clip-rule="evenodd" d="M19.5594 29.69C21.748 27.5681 24.315 25.7876 27.1992 24.4616C39.4279 18.7957 54.3703 21.9583 67.2734 32.8995C67.4314 33.0257 67.5888 33.1512 67.7454 33.2915C68.6641 34.0144 69.5231 34.8356 70.3237 35.7247C72.013 37.6264 74.3072 38.754 76.7659 38.9076C79.457 39.0759 82.02 38.0914 83.9663 36.1426C85.8522 34.2767 86.9255 31.7509 86.9966 29.0189C87.0284 27.7644 86.8399 26.5401 86.4635 25.3872C85.3224 23.7534 84.0705 22.1777 82.6884 20.6841C79.2041 16.9199 75.2365 13.9587 70.9921 11.7968C66.6634 9.80742 62.0028 8.60622 57.1762 8.30539C41.3311 7.31596 27.0366 16.0967 19.5594 29.69Z" fill="#26ADE4"/>
<mask id="mask1" mask-type="alpha" maskUnits="userSpaceOnUse" x="17" y="66" width="68" height="29">
<path fill-rule="evenodd" clip-rule="evenodd" d="M84.3284 94.209H17.4047L17.4047 66.1617H84.3284V94.209Z" fill="white"/>
</mask>
<g mask="url(#mask1)">
<path fill-rule="evenodd" clip-rule="evenodd" d="M82.1175 82.8716C85.0263 79.1551 85.1159 73.6476 82.0823 69.8217C80.367 67.6437 77.9315 66.3486 75.2404 66.1796C72.7817 66.0267 70.3773 66.8605 68.4875 68.5385C67.594 69.3232 66.6501 70.0307 65.6563 70.6359C65.4851 70.7551 65.3145 70.8596 65.1445 70.9654C65.1445 70.9654 65.1432 70.9654 65.1425 70.9661C56.4181 76.7344 47.2363 79.4047 38.7674 78.876C33.6315 78.5555 28.7532 77.064 24.4079 74.3594C21.6915 72.6841 19.341 70.5966 17.4047 68.218C23.3139 82.6465 36.5303 93.1431 52.3755 94.1332C62.2045 94.7468 71.774 91.6229 79.5525 85.3139C80.3962 84.5699 81.226 83.7979 82.0252 82.9725C82.0571 82.9396 82.0856 82.9052 82.1175 82.8716Z" fill="#26ADE4"/>
</g>
<path fill-rule="evenodd" clip-rule="evenodd" d="M60.2359 63.6502L42.6754 52.941C41.4208 52.176 41.4208 50.2624 42.6754 49.4973L60.2359 38.7868C61.4905 38.0218 63.0584 38.9782 63.0584 40.5083V61.9294C63.0584 63.4594 61.4905 64.4159 60.2359 63.6502Z" fill="#26ADE4"/>
</g>
<defs>
<clipPath id="clip0">
<rect width="100" height="100" fill="white"/>
</clipPath>
</defs>
</svg>
